<svg width="210" height="22" viewBox="0 0 210 22" fill="none" xmlns="http://www.w3.org/2000/svg">
<path d="M7.644 14.328C7.26133 14.6173 6.81333 14.8367 6.3 14.986C5.78667 15.126 5.25 15.196 4.69 15.196C4.08333 15.196 3.542 15.1073 3.066 14.93C2.59933 14.7527 2.20267 14.5053 1.876 14.188C1.55867 13.8613 1.316 13.4693 1.148 13.012C0.98 12.5547 0.896 12.0507 0.896 11.5C0.896 10.912 0.994 10.3893 1.19 9.932C1.386 9.47467 1.65667 9.08733 2.002 8.77C2.35667 8.45267 2.772 8.21467 3.248 8.056C3.724 7.888 4.242 7.804 4.802 7.804C5.32467 7.804 5.81467 7.86467 6.272 7.986C6.72933 8.10733 7.07933 8.224 7.322 8.336V10.8H5.782V9.512C5.49267 9.44667 5.20333 9.414 4.914 9.414C4.65267 9.414 4.39133 9.456 4.13 9.54C3.878 9.61467 3.64933 9.74067 3.444 9.918C3.248 10.086 3.08467 10.3007 2.954 10.562C2.83267 10.8233 2.772 11.136 2.772 11.5C2.772 11.7987 2.82333 12.074 2.926 12.326C3.02867 12.578 3.17333 12.7973 3.36 12.984C3.54667 13.1707 3.77533 13.32 4.046 13.432C4.326 13.5347 4.634 13.586 4.97 13.586C5.502 13.586 5.936 13.5113 6.272 13.362C6.61733 13.2127 6.874 13.082 7.042 12.97L7.644 14.328ZM16.3745 16.68H14.8345V15H10.0465V16.68H8.50653V13.39H9.33253C9.4072 13.2873 9.50053 13.1147 9.61253 12.872C9.73386 12.62 9.85053 12.2793 9.96253 11.85C10.0839 11.4207 10.1865 10.8887 10.2705 10.254C10.3545 9.61933 10.3965 8.868 10.3965 8H15.2685V13.39H16.3745V16.68ZM13.4485 13.474V9.54H11.9785C11.9599 9.876 11.9272 10.2353 11.8805 10.618C11.8339 10.9913 11.7732 11.3553 11.6985 11.71C11.6332 12.0647 11.5539 12.396 11.4605 12.704C11.3672 13.012 11.2645 13.2687 11.1525 13.474H13.4485ZM24.2651 14.258C24.1437 14.37 23.9851 14.482 23.7891 14.594C23.6024 14.6967 23.3784 14.7947 23.1171 14.888C22.8651 14.9813 22.5851 15.056 22.2771 15.112C21.9691 15.168 21.6424 15.196 21.2971 15.196C20.6997 15.196 20.1631 15.112 19.6871 14.944C19.2204 14.776 18.8237 14.5333 18.4971 14.216C18.1704 13.8893 17.9184 13.502 17.7411 13.054C17.5731 12.5967 17.4891 12.0787 17.4891 11.5C17.4891 10.884 17.5871 10.3473 17.7831 9.89C17.9791 9.42333 18.2451 9.036 18.5811 8.728C18.9264 8.42 19.3277 8.19133 19.7851 8.042C20.2424 7.88333 20.7371 7.804 21.2691 7.804C21.6237 7.804 21.9877 7.85067 22.3611 7.944C22.7437 8.03733 23.0937 8.20067 23.4111 8.434C23.7284 8.658 23.9851 8.96133 24.1811 9.344C24.3864 9.72667 24.4891 10.212 24.4891 10.8C24.4891 11.2013 24.4424 11.6353 24.3491 12.102H19.3091C19.3184 12.4007 19.3791 12.6527 19.4911 12.858C19.6124 13.0633 19.7664 13.2313 19.9531 13.362C20.1491 13.4927 20.3684 13.5907 20.6111 13.656C20.8631 13.712 21.1291 13.74 21.4091 13.74C21.9691 13.74 22.4264 13.6747 22.7811 13.544C23.1451 13.4133 23.4391 13.2547 23.6631 13.068L24.2651 14.258ZM21.2411 9.26C20.9984 9.26 20.7697 9.29267 20.5551 9.358C20.3404 9.42333 20.1444 9.52133 19.9671 9.652C19.7991 9.77333 19.6591 9.92733 19.5471 10.114C19.4351 10.3007 19.3697 10.5107 19.3511 10.744H22.7951C22.7951 10.2867 22.6644 9.92733 22.4031 9.666C22.1511 9.39533 21.7637 9.26 21.2411 9.26ZM30.6296 9.61H28.8236C28.7676 10.2727 28.6929 10.9307 28.5996 11.584C28.5156 12.2373 28.3803 12.8253 28.1936 13.348C28.0163 13.8613 27.7783 14.2813 27.4796 14.608C27.1903 14.9253 26.8216 15.084 26.3736 15.084C25.8323 15.084 25.4496 15.014 25.2256 14.874L25.4496 13.362C25.5989 13.418 25.7389 13.446 25.8696 13.446C26.0563 13.446 26.2243 13.3667 26.3736 13.208C26.5323 13.0493 26.6676 12.7647 26.7796 12.354C26.9009 11.9433 26.9989 11.388 27.0736 10.688C27.1483 9.97867 27.1996 9.08267 27.2276 8H32.4496V15H30.6296V9.61ZM34.8381 8.476C35.2115 8.308 35.6408 8.16333 36.1261 8.042C36.6208 7.92067 37.2041 7.86 37.8761 7.86C38.3615 7.86 38.7721 7.92067 39.1081 8.042C39.4535 8.154 39.7288 8.31733 39.9341 8.532C40.1488 8.74667 40.3028 9.00333 40.3961 9.302C40.4895 9.60067 40.5361 9.93667 40.5361 10.31C40.5361 10.786 40.5175 11.192 40.4801 11.528C40.4521 11.864 40.4381 12.1627 40.4381 12.424C40.4381 12.62 40.4475 12.8393 40.4661 13.082C40.4848 13.2127 40.4988 13.3387 40.5081 13.46H41.4181V15H39.0941L38.9121 14.048H38.8421C38.6555 14.3373 38.3895 14.5893 38.0441 14.804C37.6988 15.0093 37.2321 15.112 36.6441 15.112C35.9441 15.112 35.3888 14.9253 34.9781 14.552C34.5675 14.1787 34.3621 13.684 34.3621 13.068C34.3621 12.676 34.4321 12.34 34.5721 12.06C34.7215 11.7707 34.9315 11.5373 35.2021 11.36C35.4821 11.1733 35.8135 11.038 36.1961 10.954C36.5881 10.8607 37.0221 10.814 37.4981 10.814C37.6661 10.814 37.8435 10.8233 38.0301 10.842C38.2168 10.8607 38.4455 10.8793 38.7161 10.898C38.7348 10.8047 38.7441 10.7113 38.7441 10.618V10.352C38.7441 9.99733 38.6415 9.74533 38.4361 9.596C38.2308 9.43733 37.9275 9.358 37.5261 9.358C37.0501 9.358 36.6208 9.41867 36.2381 9.54C35.8555 9.66133 35.5335 9.78267 35.2721 9.904L34.8381 8.476ZM37.2321 13.614C37.6801 13.614 38.0161 13.5347 38.2401 13.376C38.4641 13.208 38.6275 13.0307 38.7301 12.844V12.004C38.6368 11.9853 38.4968 11.9667 38.3101 11.948C38.1235 11.92 37.9228 11.906 37.7081 11.906C37.5308 11.906 37.3535 11.9247 37.1761 11.962C36.9988 11.99 36.8401 12.0413 36.7001 12.116C36.5601 12.1813 36.4481 12.27 36.3641 12.382C36.2801 12.494 36.2381 12.6293 36.2381 12.788C36.2381 13.0493 36.3128 13.2547 36.4621 13.404C36.6208 13.544 36.8775 13.614 37.2321 13.614ZM47.6707 12.242H44.6887V15H42.8687V8H44.6887V10.632H47.6707V8H49.4907V15H47.6707V12.242ZM50.8572 11.5C50.8572 10.912 50.9459 10.3893 51.1232 9.932C51.3005 9.47467 51.5525 9.08733 51.8792 8.77C52.2059 8.45267 52.5932 8.21467 53.0412 8.056C53.4985 7.888 54.0072 7.804 54.5672 7.804C55.1552 7.804 55.6779 7.89267 56.1352 8.07C56.6019 8.24733 56.9939 8.49933 57.3112 8.826C57.6285 9.14333 57.8665 9.53067 58.0252 9.988C58.1932 10.4453 58.2772 10.9493 58.2772 11.5C58.2772 12.088 58.1885 12.6107 58.0112 13.068C57.8339 13.5253 57.5819 13.9127 57.2552 14.23C56.9285 14.5473 56.5365 14.79 56.0792 14.958C55.6312 15.1167 55.1272 15.196 54.5672 15.196C53.9792 15.196 53.4519 15.1073 52.9852 14.93C52.5279 14.7527 52.1405 14.5053 51.8232 14.188C51.5059 13.8613 51.2632 13.4693 51.0952 13.012C50.9365 12.5547 50.8572 12.0507 50.8572 11.5ZM52.7332 11.5C52.7332 11.808 52.7752 12.0927 52.8592 12.354C52.9432 12.6153 53.0645 12.844 53.2232 13.04C53.3819 13.236 53.5732 13.39 53.7972 13.502C54.0212 13.6047 54.2779 13.656 54.5672 13.656C55.1085 13.656 55.5472 13.4833 55.8832 13.138C56.2285 12.7927 56.4012 12.2467 56.4012 11.5C56.4012 10.856 56.2425 10.338 55.9252 9.946C55.6079 9.54467 55.1552 9.344 54.5672 9.344C54.3059 9.344 54.0632 9.386 53.8392 9.47C53.6152 9.54467 53.4192 9.67067 53.2512 9.848C53.0925 10.0253 52.9665 10.2493 52.8732 10.52C52.7799 10.7907 52.7332 11.1173 52.7332 11.5ZM68.2203 8.014C68.3789 8.00467 68.5796 7.99067 68.8223 7.972C69.0743 7.95333 69.3449 7.93933 69.6343 7.93C69.9329 7.92067 70.2456 7.91133 70.5723 7.902C70.9083 7.89267 71.2396 7.888 71.5663 7.888C72.6209 7.888 73.3863 8.03733 73.8623 8.336C74.3383 8.62533 74.5763 9.064 74.5763 9.652C74.5763 9.97867 74.4783 10.296 74.2823 10.604C74.0863 10.9027 73.7503 11.1267 73.2743 11.276V11.332C73.8529 11.3973 74.2589 11.584 74.4923 11.892C74.7256 12.2 74.8423 12.578 74.8423 13.026C74.8423 13.7167 74.5436 14.2393 73.9463 14.594C73.3583 14.9393 72.3876 15.112 71.0343 15.112C70.8383 15.112 70.6096 15.1073 70.3483 15.098C70.0963 15.098 69.8396 15.0887 69.5783 15.07C69.3169 15.0607 69.0649 15.0467 68.8223 15.028C68.5796 15.0187 68.3789 15.0047 68.2203 14.986V8.014ZM69.9983 13.6C70.0636 13.6093 70.1476 13.6187 70.2503 13.628C70.3529 13.6373 70.4603 13.6467 70.5723 13.656C70.6843 13.656 70.7963 13.656 70.9083 13.656C71.0203 13.656 71.1183 13.656 71.2023 13.656C71.8369 13.656 72.2989 13.586 72.5883 13.446C72.8776 13.306 73.0223 13.0913 73.0223 12.802C73.0223 12.5593 72.8963 12.3633 72.6443 12.214C72.4016 12.0553 71.9723 11.976 71.3563 11.976H69.9983V13.6ZM71.3843 10.856C71.8509 10.856 72.2056 10.786 72.4483 10.646C72.7003 10.4967 72.8263 10.31 72.8263 10.086C72.8263 9.84333 72.7096 9.66133 72.4763 9.54C72.2429 9.40933 71.8416 9.344 71.2722 9.344C71.0576 9.344 70.8149 9.34867 70.5443 9.358C70.2829 9.36733 70.1009 9.37667 69.9983 9.386V10.856H71.3843Z" fill="white"/>
<path d="M180 14.4352V12.3804C180 9.06477 177.163 6.33917 173.637 6.33917H172.256C168.734 6.33917 165.894 9.06477 165.894 12.3804V14.5145C165.893 14.7377 165.907 14.9607 165.933 15.1823C166.284 18.1883 168.971 20.5557 172.256 20.5557H173.637C176.627 20.5557 179.156 18.5655 179.847 15.9132H176.014C175.734 16.4861 175.299 16.9689 174.758 17.3068C174.217 17.6446 173.592 17.8239 172.955 17.8243C171.414 17.8243 170.088 16.8438 169.698 15.4861C169.62 15.2161 169.58 14.9365 169.581 14.6554V14.4352H180ZM169.579 12.2336C169.579 10.4723 171.113 9.06477 172.955 9.06477C174.797 9.06477 176.331 10.465 176.331 12.2336V12.8207H169.579V12.2336Z" fill="white"/>
<path d="M95.439 1.47363H99.9626L97.0506 9.64162L93.3196 20.1081L93.2931 20.18H89L92.0588 11.2928L95.439 1.47363Z" fill="white"/>
<path d="M110.925 20.18H106.632L102.477 8.5232L99.9625 1.47363H104.486L106.776 8.1269L110.925 20.18Z" fill="white"/>
<path d="M106.479 20.18H93.2168L93.3195 20.108L99.8862 15.467L106.479 20.18Z" fill="white"/>
<path d="M117.672 0V20.18H113.839V2.72413L117.672 0Z" fill="white"/>
<path d="M159.531 15.4671C159.531 16.8644 160.297 17.6687 161.446 17.6687C162.183 17.6564 162.911 17.5071 163.594 17.2284V19.8806C162.568 20.2828 161.475 20.4822 160.373 20.4677C155.851 20.4677 155.621 17.0053 155.621 15.7533V8.98409H153.167V6.48013H155.621V1.3988H159.452V3.82938L155.621 6.55351H159.452L163.668 6.48013V8.98409H159.529L159.531 15.4671Z" fill="white"/>
<path d="M134.921 14.3619V12.3746C134.921 8.98555 132.086 6.25995 128.559 6.25995H127.179C124.602 6.25995 122.394 7.71595 121.392 9.79134C121.011 10.5733 120.814 11.4316 120.815 12.3012V14.4353C120.815 17.7509 123.652 20.4765 127.179 20.4765H128.559C131.548 20.4765 134.079 18.4862 134.769 15.834H130.935C130.655 16.4092 130.22 16.8941 129.677 17.2331C129.135 17.5721 128.508 17.7515 127.869 17.7509C126.028 17.7509 124.493 16.3507 124.493 14.582V14.3619H134.921ZM127.869 9.05893C129.709 9.05893 131.245 10.4592 131.245 12.2278V12.8149H124.493V12.2278C124.493 11.7253 124.618 11.2307 124.858 10.7894C125.159 10.2577 125.597 9.81648 126.127 9.51205C126.656 9.20762 127.258 9.05112 127.869 9.05893V9.05893Z" fill="white"/>
<path d="M151.48 11.488V20.1785H147.648V11.8564C147.648 11.6769 147.633 11.4977 147.602 11.3207C147.456 10.4533 146.898 9.1323 144.814 9.1323C144.25 9.12181 143.695 9.27474 143.217 9.57262C142.424 10.0687 142.025 10.8863 141.824 11.4176V20.1815H137.987V6.55347H141.821V9.79425C141.891 9.53765 141.978 9.28609 142.082 9.0413C142.909 7.09654 144.577 6.33331 146.497 6.33331C150.792 6.33331 151.404 10.0173 151.48 11.488Z" fill="white"/>
<path d="M99.8862 15.4671L106.479 20.1785H89L92.0588 11.3016C93.6899 10.6577 95.356 10.1059 97.0491 9.64893L93.3196 20.1081L99.8862 15.4671Z" fill="white"/>
<path d="M106.776 8.12543L110.925 20.1785H106.632L102.477 8.52319C103.864 8.32651 105.297 8.19392 106.776 8.12543Z" fill="white"/>
<path d="M113.839 8.36615C115.141 8.51292 116.416 8.7096 117.672 8.95325V20.1771H113.839V8.36615Z" fill="white"/>
<path d="M134.769 15.834C134.079 18.4862 131.548 20.4764 128.559 20.4764H127.179C123.656 20.4764 120.815 17.7508 120.815 14.4352V12.3011C120.814 11.4315 121.011 10.5732 121.392 9.79126C122.566 10.0936 123.717 10.4297 124.861 10.7893C124.621 11.2307 124.495 11.7252 124.496 12.2277V12.8148H130.669C131.999 13.3153 133.326 13.8349 134.654 14.3603H124.496V14.5805C124.496 16.3418 126.028 17.7494 127.872 17.7494C128.511 17.75 129.138 17.5705 129.68 17.2315C130.222 16.8925 130.658 16.4077 130.938 15.8325L134.769 15.834Z" fill="white"/>
<path d="M137.987 15.6799C139.255 16.1789 140.531 16.675 141.821 17.1476V20.1712H137.987V15.6799Z" fill="white"/>
<path d="M147.648 19.1643C148.814 19.5263 149.999 19.8644 151.203 20.1785H147.648V19.1643Z" fill="white"/>
<path d="M137.987 6.55347H141.821V8.9136C140.437 8.23844 139.161 7.53539 137.987 6.81766V6.55347Z" fill="white"/>
<path d="M151.48 11.488V12.5419C150.119 12.1602 148.827 11.7532 147.603 11.3207C147.456 10.4533 146.898 9.13229 144.814 9.13229C144.25 9.1218 143.696 9.27473 143.217 9.57261C142.832 9.39795 142.455 9.22329 142.085 9.04423C142.912 7.09947 144.58 6.33624 146.5 6.33624C150.792 6.33331 151.404 10.0173 151.48 11.488Z" fill="white"/>
<path d="M159.452 6.55351L163.668 6.48013V8.98409H159.529V14.3267C158.173 14.0987 156.87 13.8472 155.619 13.5723V8.98409H153.167V6.48013H155.621V1.3988H159.452V3.82938L155.621 6.55351H159.452Z" fill="white"/>
<path d="M180 14.4352V12.3804C180 9.06477 177.163 6.33917 173.637 6.33917H172.256C168.734 6.33917 165.894 9.06477 165.894 12.3804V14.5145C165.893 14.7377 165.907 14.9607 165.933 15.1823C167.148 15.3027 168.4 15.4083 169.691 15.492C169.613 15.222 169.573 14.9423 169.573 14.6613V14.4411L180 14.4352ZM169.579 12.2336C169.579 10.4723 171.113 9.06477 172.955 9.06477C174.797 9.06477 176.331 10.465 176.331 12.2336V12.8207H169.579V12.2336Z" fill="white"/>
<path d="M193.5 10.3C193.5 9.21278 193.937 8.17111 194.713 7.4094C195.488 6.64768 196.538 6.22989 197.625 6.25002C198.913 6.24318 200.142 6.78941 201 7.75002C201.858 6.78941 203.087 6.24318 204.375 6.25002C205.462 6.22989 206.512 6.64768 207.287 7.4094C208.063 8.17111 208.5 9.21278 208.5 10.3C208.5 14.317 203.716 17.35 201 19.75C198.29 17.3298 193.5 14.32 193.5 10.3Z" fill="#FF0D55"/>
</svg>
