<svg width="40" height="40" viewBox="0 0 40 40" fill="none" xmlns="http://www.w3.org/2000/svg">
<circle cx="20" cy="20" r="20" fill="#F7F7F7"/>
<path fill-rule="evenodd" clip-rule="evenodd" d="M28.129 20.8778C28.0774 16.0423 24.529 12 19.9871 12C15.4452 12 11.9097 16.0423 11.8452 20.8778C10.7613 21.1976 10 22.1954 10 23.3339V25.0608C10 26.2377 10.8129 27.2739 11.9613 27.5553L13.5742 27.9519C14.3871 28.1566 15.1871 27.5425 15.1871 26.6982V21.6965C15.1871 20.865 14.3871 20.251 13.5742 20.4429L13.3548 20.494C13.5742 16.5029 16.5419 13.4711 20 13.4711C23.4581 13.4711 26.4129 16.5029 26.6452 20.494L26.4258 20.4429C25.6 20.2382 24.8129 20.8522 24.8129 21.6965V26.711C24.8129 27.5425 25.6129 28.1566 26.4258 27.9647L28.0387 27.5681C29.1871 27.2867 30 26.2505 30 25.0736V23.3339C29.9871 22.1954 29.2258 21.1976 28.129 20.8778ZM13.7032 21.9268V26.4552L12.3226 26.1226C11.8323 25.9947 11.4839 25.5597 11.4839 25.0608V23.3339C11.4839 22.835 11.8323 22.3873 12.3226 22.2721L13.7032 21.9268ZM28.4903 25.0608C28.4903 25.5597 28.1419 26.0075 27.6516 26.1226L26.2839 26.468V21.9268L27.6516 22.2721C28.1419 22.4001 28.4903 22.835 28.4903 23.3339V25.0608Z" fill="#B4C0CF"/>
</svg>
