<svg width="24" height="24" viewBox="0 0 24 24" fill="none" xmlns="http://www.w3.org/2000/svg">
<path fill-rule="evenodd" clip-rule="evenodd" d="M13.2472 3.44252L4.04882 12.589C3.06142 13.5764 2.50709 14.8929 2.50709 16.2787C2.50709 17.6646 3.06142 18.9984 4.04882 19.9685C5.03622 20.9559 6.37008 21.4929 7.77323 21.4929C9.17638 21.4929 10.5102 20.9386 11.4976 19.9685L20.6961 10.822C20.9906 10.5276 21.4583 10.5276 21.7528 10.822C22.0472 11.1165 22.0472 11.5843 21.7528 11.8787L12.5543 21.0252C11.2724 22.2898 9.55748 23 7.75591 23C5.95433 23 4.23937 22.2898 2.9748 21.0252C1.71024 19.778 1 18.063 1 16.2787C1 14.4945 1.71024 12.7795 2.9748 11.5323L12.1732 2.38583C13.074 1.50236 14.2866 1 15.5512 1C16.8157 1 18.0283 1.50236 18.9118 2.38583C19.8126 3.26929 20.2976 4.48189 20.2976 5.72913C20.2976 6.97638 19.7953 8.18898 18.9118 9.07244L9.69606 18.2189C9.17638 18.7386 8.48346 19.0157 7.75591 19.0157C7.02835 19.0157 6.31811 18.7213 5.81575 18.2189C5.29606 17.6992 5.00157 17.0063 5.00157 16.2787C5.00157 15.5512 5.29606 14.8583 5.81575 14.3386L14.3213 5.90236C14.6157 5.60787 15.0835 5.60787 15.378 5.90236C15.6724 6.19685 15.6724 6.66457 15.378 6.95906L6.87244 15.3953C6.62992 15.6205 6.50866 15.9496 6.50866 16.2787C6.50866 16.6079 6.64724 16.9197 6.87244 17.1622C7.11496 17.3874 7.42677 17.526 7.75591 17.526C8.08504 17.526 8.41417 17.3874 8.63937 17.1622L17.8551 8.01575C18.4614 7.40945 18.8079 6.57795 18.8079 5.72913C18.8079 4.86299 18.4614 4.04882 17.8551 3.44252C17.2488 2.83622 16.4173 2.48976 15.5512 2.48976C14.685 2.48976 13.8535 2.83622 13.2472 3.44252Z" fill="#B4C0CF"/>
</svg>
