<svg width="40" height="40" viewBox="0 0 40 40" fill="none" xmlns="http://www.w3.org/2000/svg">
<circle cx="20" cy="20" r="20" fill="#F7F7F7"/>
<path d="M13.6142 26.166H18.7778C19.3271 26.166 19.7665 25.9463 20.206 25.6167L29.764 16.0587C30.0936 15.7291 30.0936 15.1798 29.764 14.8502L24.161 9.24719C23.8315 8.9176 23.2821 8.9176 22.9526 9.24719L13.2846 18.8052C12.9551 19.1348 12.7353 19.6841 12.7353 20.2335V25.397C12.7353 25.7266 13.1748 26.166 13.6142 26.166ZM23.392 11.1149L27.7865 15.5094L25.809 17.4869L21.4145 13.0924L23.392 11.1149ZM14.3833 20.1236L20.206 14.3009L24.6005 18.6954L18.8876 24.4082C18.8876 24.4082 18.7778 24.4082 18.6679 24.4082H14.3833V20.1236Z" fill="#B4C0CF"/>
<path d="M30.0936 29.3521H9.8789C9.43945 29.3521 9 29.6816 9 30.231C9 30.6704 9.32959 31 9.8789 31H30.2035C30.6429 31 31.0824 30.6704 31.0824 30.1211C30.9725 29.6816 30.6429 29.3521 30.0936 29.3521Z" fill="#B4C0CF"/>
</svg>
