<svg width="24" height="24" viewBox="0 0 24 24" fill="none" xmlns="http://www.w3.org/2000/svg">
<path fill-rule="evenodd" clip-rule="evenodd" d="M21 16.2233V6.06681C21 5.51782 20.7851 4.75111 20.1506 4.11693C19.4957 3.45434 18.4622 3 16.9784 3V4.41982C18.104 4.41982 18.6976 4.75111 19.0148 5.07294C19.3627 5.4137 19.465 5.83018 19.465 6.06681V13.5256C18.8101 13.0618 17.9915 12.7873 17.1012 12.7873C15.2695 12.7873 13.7345 13.9516 13.315 15.5228H10.685C10.2655 13.9516 8.73053 12.7873 6.8988 12.7873C6.00852 12.7873 5.18988 13.0618 4.53496 13.5256V6.06681C4.53496 5.83018 4.6373 5.4137 4.98522 5.07294C5.30245 4.75111 5.9062 4.41982 7.02161 4.41982V3C5.53781 3 4.50427 3.45434 3.84935 4.11693C3.2149 4.75111 3 5.52728 3 6.06681V16.2233C3 16.2801 3 16.3369 3 16.3937C3 18.3909 4.74986 20 6.8988 20C8.85332 20 10.4702 18.6654 10.7567 16.9332H13.2433C13.5298 18.6654 15.1467 20 17.1012 20C19.2604 20 21 18.3814 21 16.3937C21 16.3369 21 16.2801 21 16.2233ZM6.88857 18.5802C5.57874 18.5802 4.52473 17.5958 4.52473 16.3937C4.52473 16.3842 4.52473 16.3747 4.52473 16.3653V16.2611C4.59636 15.1158 5.6299 14.2071 6.88857 14.2071C8.19841 14.2071 9.25241 15.1915 9.25241 16.3937C9.25241 17.5958 8.19841 18.5802 6.88857 18.5802ZM19.465 16.3937C19.465 17.6052 18.4008 18.5802 17.1012 18.5802C15.7914 18.5802 14.7374 17.5958 14.7374 16.3937C14.7374 15.1915 15.8016 14.2071 17.1012 14.2071C18.3599 14.2071 19.3832 15.1158 19.465 16.2611V16.3653C19.465 16.3747 19.465 16.3842 19.465 16.3937Z" fill="#5083F3"/>
</svg>
