<svg width="20" height="20" viewBox="0 0 20 20" fill="none" xmlns="http://www.w3.org/2000/svg">
<path fill-rule="evenodd" clip-rule="evenodd" d="M3.32862 10.8288L0.970396 20L10.0128 16.9914L19.8442 6.31411L13.1561 0.155816L3.32862 10.8288ZM17.4382 6.41335L9.48579 15.05L9.07765 14.6742L8.88401 14.5813L16.879 5.89843L17.4382 6.41335ZM15.6264 4.74504L7.60037 13.4616L7.29813 12.9887L7.03041 12.8627L15.0195 4.18623L15.6264 4.74504ZM13.7669 3.03284L5.75797 11.7308L5.601 11.473L5.3029 11.1985L13.2553 2.56183L13.7669 3.03284ZM3.73742 16.0765L4.53107 12.99L5.02446 13.8004L6.12811 14.3199L6.89131 15.5141L7.77939 15.94L4.70141 16.9641L3.73742 16.0765Z" fill="white"/>
</svg>
