<svg width="50" height="50" viewBox="0 0 50 50" fill="none" xmlns="http://www.w3.org/2000/svg">
<circle cx="25" cy="25" r="24.5" fill="white" stroke="#5083F3"/>
<path fill-rule="evenodd" clip-rule="evenodd" d="M16.2802 24.4084C15.8968 24.0109 15.9083 23.3778 16.3059 22.9944L24.3059 15.2802C24.6932 14.9066 25.3068 14.9066 25.6941 15.2802L33.6941 22.9944C34.0917 23.3778 34.1032 24.0109 33.7198 24.4084C33.3365 24.806 32.7034 24.8175 32.3059 24.4341L26 18.3535L26 34C26 34.5523 25.5523 35 25 35C24.4477 35 24 34.5523 24 34L24 18.3535L17.6941 24.4341C17.2966 24.8175 16.6635 24.806 16.2802 24.4084Z" fill="#5083F3"/>
</svg>
