<svg width="16" height="16" viewBox="0 0 16 16" fill="none" xmlns="http://www.w3.org/2000/svg">
<path fill-rule="evenodd" clip-rule="evenodd" d="M8.62423 8.07451L15 1.84706L14.1755 1L12.3932 2.74118H11.0269C10.8699 1.8549 10.1004 1.18824 9.17386 1.18824C8.24733 1.18824 7.47784 1.86275 7.32081 2.74118H3.62255L1.8166 1L1 1.84706L7.44643 8.07451V13.8235H4.50196V15H11.498V13.8235H8.62423V8.07451ZM9.17386 2.36471C9.56646 2.36471 9.88053 2.67843 9.88053 3.07059C9.88053 3.46275 9.56646 3.77647 9.17386 3.77647C8.78126 3.77647 8.46719 3.46275 8.46719 3.07059C8.46719 2.67843 8.78126 2.36471 9.17386 2.36471ZM4.8396 3.91765H7.49354C7.79977 4.52941 8.43578 4.95294 9.17386 4.95294C9.91194 4.95294 10.5479 4.52941 10.8542 3.91765H11.1918L8.03533 7.00784L4.8396 3.91765Z" fill="black"/>
</svg>
