<svg width="16" height="16" viewBox="0 0 16 16" fill="none" xmlns="http://www.w3.org/2000/svg">
<path d="M7.7312 0.643555L7.12421 4.36932L8.30574 4.56182L8.91274 0.836048L7.7312 0.643555Z" fill="black"/>
<path d="M13.7025 0.918043L9.55291 5.08643L10.4013 5.93098L14.5509 1.76259L13.7025 0.918043Z" fill="black"/>
<path d="M13.6144 6.16316L10.7795 7.04459L11.1349 8.1877L13.9698 7.30626L13.6144 6.16316Z" fill="black"/>
<path d="M3.60045 9.07634L1.08655 11.6381L4.14313 14.8463L6.72088 12.1808L12.1318 10.8161L4.89331 3.54575L3.60045 9.07634ZM4.14313 13.1225L2.74652 11.6541L4.14313 10.2255L5.56369 11.6541L4.14313 13.1225ZM9.79343 10.1697L6.58521 10.9837L4.79755 9.18807L5.55571 5.92399L9.79343 10.1697Z" fill="black"/>
</svg>
