<svg width="16" height="16" viewBox="0 0 16 16" fill="none" xmlns="http://www.w3.org/2000/svg">
<path fill-rule="evenodd" clip-rule="evenodd" d="M15.0865 11.5333V3.16917C15.0865 2.71705 14.9194 2.08565 14.4259 1.56338C13.9166 1.01772 13.1127 0.643555 11.9586 0.643555V1.81282C12.8341 1.81282 13.2958 2.08565 13.5425 2.35068C13.8131 2.63131 13.8927 2.97429 13.8927 3.16917V9.31171C13.3833 8.92975 12.7466 8.70369 12.0541 8.70369C10.6295 8.70369 9.43561 9.66249 9.10929 10.9565H7.0638C6.73748 9.66249 5.54362 8.70369 4.11895 8.70369C3.42651 8.70369 2.78979 8.92975 2.28041 9.31171V3.16917C2.28041 2.97429 2.36 2.63131 2.63061 2.35068C2.87734 2.08565 3.34693 1.81282 4.21446 1.81282V0.643555C3.0604 0.643555 2.25653 1.01772 1.74715 1.56338C1.25369 2.08565 1.08655 2.72485 1.08655 3.16917V11.5333C1.08655 11.5801 1.08655 11.6269 1.08655 11.6736C1.08655 13.3184 2.44755 14.6436 4.11895 14.6436C5.63913 14.6436 6.89667 13.5444 7.11952 12.1179H9.05357C9.27643 13.5444 10.534 14.6436 12.0541 14.6436C13.7335 14.6436 15.0865 13.3106 15.0865 11.6736C15.0865 11.6269 15.0865 11.5801 15.0865 11.5333ZM4.11099 13.4743C3.09223 13.4743 2.27245 12.6636 2.27245 11.6736C2.27245 11.6658 2.27245 11.658 2.27245 11.6502V11.5645C2.32816 10.6213 3.13203 9.87296 4.11099 9.87296C5.12975 9.87296 5.94954 10.6836 5.94954 11.6736C5.94954 12.6636 5.12975 13.4743 4.11099 13.4743ZM13.8927 11.6736C13.8927 12.6714 13.0649 13.4743 12.0541 13.4743C11.0354 13.4743 10.2156 12.6636 10.2156 11.6736C10.2156 10.6836 11.0433 9.87296 12.0541 9.87296C13.0331 9.87296 13.829 10.6213 13.8927 11.5645V11.6502C13.8927 11.658 13.8927 11.6658 13.8927 11.6736Z" fill="black"/>
</svg>
