<svg width="32" height="32" viewBox="0 0 32 32" fill="none" xmlns="http://www.w3.org/2000/svg">
<path fill-rule="evenodd" clip-rule="evenodd" d="M0 5C0 2.23859 2.23859 0 5 0H27C29.7614 0 32 2.23859 32 5V27C32 29.7614 29.7614 32 27 32H5C2.23859 32 0 29.7614 0 27V5ZM10.1192 8.04428C11.5906 6.95401 13.3296 6.29492 15.1421 6.13116V9.13037C13.9705 9.28226 12.8516 9.73083 11.8944 10.4401C10.696 11.3281 9.81464 12.5778 9.38043 14.0048C8.9462 15.4319 8.98212 16.9607 9.48282 18.3657C9.98355 19.7708 10.9225 20.9778 12.1614 21.8086C13.4002 22.6394 14.8733 23.05 16.3633 22.9801C17.8532 22.9101 19.2812 22.363 20.4367 21.4198C21.5921 20.4763 22.4138 19.1867 22.7806 17.7409C23.0365 16.7324 23.0615 15.6852 22.8611 14.6755L25.3796 12.6508L25.3779 12.6345C26.0578 14.5046 26.1617 16.5392 25.6709 18.4741C25.1469 20.5395 23.9731 22.3819 22.3224 23.7296C20.6718 25.0771 18.6317 25.8586 16.5032 25.9586C14.3747 26.0585 12.2703 25.4719 10.5005 24.285C8.7308 23.0982 7.38934 21.3739 6.67404 19.3667C5.95874 17.3594 5.90744 15.1754 6.52774 13.1368C7.14804 11.0982 8.4071 9.31293 10.1192 8.04428ZM23.4911 9.47055L23.4806 9.44412C22.0565 7.83578 20.1191 6.69235 17.9251 6.27036V13.2277C17.386 12.8637 16.7361 12.6512 16.0367 12.6512C14.1703 12.6512 12.6573 14.1642 12.6573 16.0305C12.6573 17.8969 14.1703 19.4099 16.0367 19.4099C17.903 19.4099 19.416 17.8969 19.416 16.0305V9.94736C20.3759 10.4817 21.196 11.2367 21.8081 12.1437L23.4911 9.47055Z" fill="#EEF0F3"/>
</svg>
