<svg width="32" height="32" viewBox="0 0 32 32" fill="none" xmlns="http://www.w3.org/2000/svg">
<path fill-rule="evenodd" clip-rule="evenodd" d="M5 0C2.23858 0 0 2.23858 0 5V27C0 29.7614 2.23858 32 5 32H27C29.7614 32 32 29.7614 32 27V5C32 2.23858 29.7614 0 27 0H5ZM24.378 10.2162C25.2738 10.2162 26 9.49624 26 8.60811C26 7.71997 25.2738 7 24.378 7C23.4823 7 22.7561 7.71997 22.7561 8.60811C22.7561 9.49624 23.4823 10.2162 24.378 10.2162ZM19.9756 9.75676H7V24H10.7073V18.9459H16.7317L20.439 24H24.1463L20.439 18.9459L20.4225 18.9195C22.2593 18.7007 23.6829 17.1503 23.6829 15.2703V13.4324C23.6829 11.4024 22.0231 9.75676 19.9756 9.75676ZM10.7073 12.5135H19.0488C19.5607 12.5135 19.9756 12.9249 19.9756 13.4324V15.2703C19.9756 15.7778 19.5607 16.1892 19.0488 16.1892H10.7073V12.5135Z" fill="#EEF0F3"/>
</svg>
