<svg width="32" height="32" viewBox="0 0 32 32" fill="none" xmlns="http://www.w3.org/2000/svg">
<path fill-rule="evenodd" clip-rule="evenodd" d="M5 0C2.23858 0 0 2.23858 0 5V27C0 29.7614 2.23858 32 5 32H27C29.7614 32 32 29.7614 32 27V5C32 2.23858 29.7614 0 27 0H5ZM6.03027 16.0022C6.03027 10.4964 10.4938 6.03296 15.9997 6.03296L15.9996 6.03344C21.5061 6.03344 25.9692 10.4968 25.9692 16.0022C25.9692 21.5083 21.5061 25.9714 15.9997 25.9714C10.4938 25.9714 6.03027 21.5083 6.03027 16.0022ZM19.7168 20.6175C20.0097 20.7972 20.393 20.7044 20.5716 20.4115C20.7513 20.1187 20.6585 19.7365 20.3656 19.5568C17.7378 17.9508 14.4803 17.5769 10.6827 18.4449C10.3474 18.5211 10.1387 18.8544 10.2153 19.1889C10.2915 19.5234 10.6248 19.733 10.9592 19.6568C14.4294 18.8639 17.3761 19.1877 19.7168 20.6175ZM20.7228 17.9532C21.0882 18.1782 21.5668 18.0627 21.7918 17.6966V17.6968C22.0168 17.3318 21.9013 16.8532 21.5359 16.6282C18.4585 14.7371 13.9574 14.205 10.3368 15.3036C9.92646 15.4286 9.69468 15.8619 9.81849 16.273C9.94325 16.6833 10.3774 16.915 10.7885 16.7908C13.9581 15.8287 18.043 16.3057 20.7228 17.9532ZM10.3146 13.7171C13.3823 12.7861 18.6835 12.9615 21.8966 14.87H21.8971C22.3387 15.1331 22.9125 14.987 23.1744 14.5439C23.4375 14.1014 23.2923 13.5292 22.8482 13.2662C19.149 11.0701 13.2948 10.8636 9.77325 11.9326C9.28027 12.0824 9.00242 12.603 9.1517 13.0958C9.30099 13.5884 9.82194 13.8665 10.3146 13.7171Z" fill="#EEF0F3"/>
</svg>
