<svg width="91" height="30" viewBox="0 0 91 30" fill="none" xmlns="http://www.w3.org/2000/svg">
<path d="M43.1492 4.48777C45.3579 6.70263 47.6205 9.03107 49.8831 11.3027C49.8831 11.3595 49.8292 11.4731 49.8292 11.5299C44.3882 11.5299 38.8933 11.5299 33.3984 11.5299C33.3984 13.5744 33.3984 15.5053 33.3984 17.5498C38.8933 17.5498 44.3882 17.5498 49.8292 17.5498C49.8831 17.6633 49.9369 17.7769 49.9369 17.8337C47.6743 20.1622 45.4117 22.4338 43.2569 24.6487C44.6575 26.182 45.9505 27.545 47.1356 28.7944C51.6608 24.024 56.2399 19.1967 60.7651 14.483C56.2399 9.71257 51.6608 4.88531 47.2434 0.171631C45.8966 1.53462 44.6037 2.89761 43.1492 4.48777Z" fill="#5083F3"/>
<path d="M0 29.0203C9.212 29.0203 18.424 29.0203 27.5821 29.0203C27.5821 19.309 27.5821 9.71131 27.5821 0C18.3701 0 9.212 0 0 0C0 9.71131 0 19.3658 0 29.0203Z" fill="#5083F3"/>
<path d="M87.8621 4.71356L80.3201 9.31365V0.227051H74.6636V9.31365L67.1755 4.71356L64.3203 9.82478L71.8623 14.4249L64.3203 19.025L67.1755 24.1362L74.6636 19.5361V28.8499H80.3201V19.5361L87.8621 24.1362L90.6634 19.025L83.1214 14.4249L90.6634 9.82478L87.8621 4.71356Z" fill="#5083F3"/>
</svg>
