<svg width="161" height="16" viewBox="0 0 161 16" fill="none" xmlns="http://www.w3.org/2000/svg">
<path d="M4.28295 0.990206C4.05453 0.6892 3.769 0.448394 3.48347 0.297891C2.88386 -0.0332163 2.22714 -0.0332163 1.59897 0.297891C1.28489 0.448394 1.02791 0.6892 0.799485 0.990206C0.57106 1.29121 0.371189 1.65242 0.228424 2.10393C0.0856591 2.52534 0 3.00695 0 3.57886V12.3984C0 12.9703 0.0856591 13.482 0.199871 13.9034C0.342636 14.3248 0.542507 14.7161 0.770932 15.0171C0.999356 15.3181 1.28489 15.5589 1.59897 15.7094C1.91305 15.8599 2.22714 15.9502 2.54122 15.9502C2.8553 15.9502 3.19794 15.8599 3.48347 15.7094C3.79755 15.5589 4.05453 15.3181 4.31151 15.0171C4.53993 14.7161 4.7398 14.3549 4.88257 13.9034C5.02533 13.482 5.08244 12.9703 5.08244 12.3984V11.7963C5.08244 11.2545 4.76835 11.0739 4.45427 11.0739H3.99742C3.71189 11.0739 3.36926 11.2545 3.36926 11.7963V12.5489C3.36926 13.0305 3.2836 13.3917 3.11228 13.6024C2.94096 13.8131 2.76964 13.9034 2.54122 13.9034C2.31279 13.9034 2.11292 13.8131 1.94161 13.6024C1.79884 13.3616 1.71318 13.0305 1.71318 12.5489V3.45846C1.71318 2.97685 1.79884 2.61564 1.97016 2.37484C2.14148 2.16413 2.31279 2.07383 2.56977 2.07383C2.7982 2.07383 2.96951 2.16413 3.14083 2.37484C3.31215 2.58554 3.39781 2.94675 3.39781 3.45846V3.97017C3.39781 4.51198 3.71189 4.69259 4.02598 4.69259H4.45427C4.62559 4.69259 4.79691 4.60229 4.91112 4.48188C5.02533 4.36148 5.08244 4.18088 5.08244 3.97017V3.57886C5.08244 3.03705 5.02533 2.52534 4.88257 2.10393C4.71125 1.65242 4.51138 1.29121 4.28295 0.990206Z" fill="#5083F3"/>
<path d="M12.1853 0.177979H11.6428C11.3287 0.177979 11.1003 0.388683 11.0432 0.71979L9.52986 7.76334C9.50131 7.91385 9.47275 8.03425 9.4442 8.12455C9.4442 8.00415 9.4442 7.85365 9.4442 7.70314V0.900394C9.4442 0.358582 9.13012 0.177979 8.81603 0.177979H8.35918C8.07365 0.177979 7.73102 0.358582 7.73102 0.900394V15.0477C7.73102 15.5895 8.0451 15.7701 8.35918 15.7701H8.90169C9.21578 15.7701 9.4442 15.5594 9.50131 15.2283L11.0146 8.12455C11.0432 8.00415 11.0717 7.88375 11.1003 7.76334C11.1003 7.88375 11.1003 8.00415 11.1003 8.15465V15.0176C11.1003 15.5594 11.4144 15.74 11.7284 15.74H12.1853C12.4708 15.74 12.8135 15.5594 12.8135 15.0176V0.870294C12.8135 0.388683 12.4994 0.177979 12.1853 0.177979Z" fill="#5083F3"/>
<path d="M19.7203 7.82354C19.4919 7.52254 19.2063 7.28173 18.8922 7.13123C18.5782 6.98073 18.2641 6.89043 17.95 6.89043H17.2362C17.2076 6.89043 17.2076 6.89043 17.2076 6.89043C17.2076 6.89043 17.1791 6.83022 17.1791 6.77002V2.34523C17.1791 2.25492 17.1791 2.22482 17.1791 2.22482C17.1791 2.22482 17.1791 2.22482 17.2076 2.22482H19.4348C19.7203 2.22482 20.0629 2.04422 20.0629 1.50241V0.900394C20.0629 0.358582 19.7488 0.177979 19.4348 0.177979H16.094C15.8085 0.177979 15.4659 0.358582 15.4659 0.900394V15.0477C15.4659 15.5895 15.78 15.7701 16.094 15.7701H17.95C18.2641 15.7701 18.5782 15.6798 18.8922 15.5293C19.2063 15.3487 19.4633 15.1079 19.7203 14.8069C19.9487 14.5059 20.1486 14.1146 20.2913 13.6631C20.4341 13.2116 20.4912 12.6999 20.4912 12.158V10.4423C20.4912 9.87039 20.4056 9.35868 20.2913 8.93727C20.1486 8.48576 19.9487 8.12455 19.7203 7.82354ZM17.2076 8.93727C17.2076 8.93727 17.2076 8.93727 17.2362 8.93727H17.95C18.1784 8.93727 18.3497 9.02757 18.5211 9.23828C18.6924 9.44898 18.778 9.81019 18.778 10.2918V12.2784C18.778 12.7601 18.6924 13.1213 18.5211 13.332C18.3497 13.5427 18.1784 13.633 17.95 13.633H17.2362C17.2076 13.633 17.2076 13.633 17.2076 13.633C17.2076 13.633 17.1791 13.5728 17.1791 13.5126V9.05767C17.1791 8.96737 17.2076 8.93727 17.2076 8.93727Z" fill="#5083F3"/>
<path d="M27.5949 0.177979H27.0524C26.7383 0.177979 26.5099 0.388683 26.4527 0.71979L24.9394 7.76334C24.9109 7.91385 24.8823 8.03425 24.8538 8.12455C24.8538 8.00415 24.8538 7.85365 24.8538 7.70314V0.900394C24.8538 0.358582 24.5397 0.177979 24.2256 0.177979H23.7688C23.4832 0.177979 23.1406 0.358582 23.1406 0.900394V15.0477C23.1406 15.5895 23.4547 15.7701 23.7688 15.7701H24.3113C24.6254 15.7701 24.8538 15.5594 24.9109 15.2283L26.4242 8.12455C26.4527 8.00415 26.4813 7.88375 26.5099 7.76334C26.5099 7.88375 26.5099 8.00415 26.5099 8.15465V15.0176C26.5099 15.5594 26.8239 15.74 27.138 15.74H27.5949C27.8804 15.74 28.223 15.5594 28.223 15.0176V0.870294C28.223 0.388683 27.8804 0.177979 27.5949 0.177979Z" fill="#5083F3"/>
<path d="M35.128 1.1111C34.8995 0.810092 34.614 0.569287 34.2999 0.418784C33.9858 0.268281 33.6718 0.177979 33.3577 0.177979H31.5017C31.2162 0.177979 30.8736 0.358582 30.8736 0.900394V15.0477C30.8736 15.5895 31.1876 15.7701 31.5017 15.7701H31.9586C32.2441 15.7701 32.5867 15.5895 32.5867 15.0477V9.02757C32.5867 8.93727 32.5867 8.90717 32.5867 8.90717C32.5867 8.90717 32.5867 8.90717 32.6153 8.90717H33.3577C33.6718 8.90717 33.9858 8.81687 34.2999 8.66636C34.614 8.51586 34.8995 8.27505 35.128 7.97405C35.3564 7.67304 35.5563 7.31183 35.699 6.86032C35.8418 6.43892 35.8989 5.9272 35.8989 5.35529V3.63955C35.8989 3.06764 35.8132 2.55593 35.699 2.13452C35.5277 1.77331 35.3564 1.41211 35.128 1.1111ZM32.5867 2.22482C32.5867 2.22482 32.5867 2.22482 32.6153 2.22482H33.3577C33.5861 2.22482 33.7574 2.31512 33.9287 2.52583C34.1001 2.73653 34.1857 3.09774 34.1857 3.57935V5.566C34.1857 6.04761 34.1001 6.40881 33.9287 6.61952C33.7574 6.83022 33.5861 6.92053 33.3577 6.92053H32.6439C32.6153 6.92053 32.6153 6.92053 32.6153 6.92053C32.6153 6.92053 32.5867 6.86032 32.5867 6.80012V2.34523C32.5867 2.25492 32.6153 2.22482 32.5867 2.22482Z" fill="#5083F3"/>
<path d="M42.8027 7.82354C42.5743 7.52254 42.2887 7.28173 41.9746 7.13123C41.6606 6.98073 41.3465 6.89043 41.0324 6.89043H40.3186C40.29 6.89043 40.29 6.89043 40.29 6.89043C40.29 6.89043 40.2615 6.83022 40.2615 6.77002V0.900394C40.2615 0.358582 39.9474 0.177979 39.6333 0.177979H39.1764C38.8909 0.177979 38.5483 0.358582 38.5483 0.900394V15.0477C38.5483 15.5895 38.8624 15.7701 39.1764 15.7701H41.0324C41.3465 15.7701 41.6606 15.6798 41.9746 15.5293C42.2887 15.3487 42.5457 15.1079 42.8027 14.8069C43.0311 14.5059 43.231 14.1146 43.3737 13.6631C43.5165 13.2116 43.5736 12.6999 43.5736 12.158V10.4423C43.5736 9.87039 43.488 9.35868 43.3737 8.93727C43.231 8.48576 43.0597 8.12455 42.8027 7.82354ZM41.8604 10.2918V12.2784C41.8604 12.7601 41.7748 13.1213 41.6035 13.332C41.4321 13.5427 41.2608 13.633 41.0324 13.633H40.3186C40.29 13.633 40.29 13.633 40.29 13.633C40.29 13.633 40.2615 13.5728 40.2615 13.5126V9.05767C40.2615 8.96737 40.2615 8.93727 40.2615 8.93727C40.2615 8.93727 40.2615 8.93727 40.29 8.93727H41.0038C41.2323 8.93727 41.4036 9.02757 41.5749 9.23828C41.7748 9.47908 41.8604 9.81019 41.8604 10.2918Z" fill="#5083F3"/>
<path d="M103.647 0.982681C103.419 0.681674 103.133 0.440869 102.819 0.290366C102.505 0.139863 102.191 0.0495605 101.877 0.0495605H100.021C99.7355 0.0495605 99.3928 0.230164 99.3928 0.771976V14.9193C99.3928 15.4611 99.7069 15.6417 100.021 15.6417H100.478C100.763 15.6417 101.106 15.4611 101.106 14.9193V8.89915C101.106 8.80885 101.106 8.77875 101.106 8.77875C101.106 8.77875 101.106 8.77875 101.135 8.77875H101.848C102.162 8.77875 102.477 8.68845 102.791 8.53795C103.105 8.38744 103.39 8.14664 103.619 7.84563C103.847 7.54462 104.047 7.18342 104.19 6.73191C104.332 6.3105 104.39 5.79879 104.39 5.22687V3.51114C104.39 2.93922 104.304 2.42751 104.19 2.0061C104.076 1.6449 103.876 1.28369 103.647 0.982681ZM101.135 2.21681C101.135 2.12651 101.135 2.09641 101.135 2.09641C101.135 2.09641 101.135 2.09641 101.163 2.09641H101.877C102.105 2.09641 102.277 2.18671 102.448 2.39741C102.619 2.60812 102.705 2.96932 102.705 3.45093V5.43758C102.705 5.91919 102.619 6.2804 102.448 6.4911C102.277 6.70181 102.105 6.79211 101.877 6.79211H101.163C101.135 6.79211 101.135 6.79211 101.135 6.79211C101.135 6.79211 101.106 6.73191 101.106 6.6717V2.21681H101.135Z" fill="#5083F3"/>
<path d="M112.524 14.4678L110.867 0.681674C110.81 0.290366 110.582 0.0495605 110.239 0.0495605H109.354C109.011 0.0495605 108.783 0.290366 108.726 0.681674L107.07 14.4678C107.041 14.6785 107.041 14.7989 107.041 14.829C107.041 14.8892 107.041 14.9193 107.041 14.9494C107.041 15.3708 107.27 15.6417 107.669 15.6417H108.069C108.412 15.6417 108.64 15.4009 108.697 15.0096L109.011 12.2403C109.011 12.15 109.04 12.15 109.069 12.15H110.61C110.61 12.15 110.639 12.1801 110.639 12.2403L110.982 15.0096C111.039 15.4009 111.267 15.6417 111.61 15.6417H112.01C112.381 15.6417 112.638 15.3708 112.638 14.9494C112.638 14.9193 112.638 14.8892 112.638 14.829C112.552 14.7989 112.524 14.6785 112.524 14.4678ZM110.325 10.1032C110.325 10.1333 110.325 10.1634 110.325 10.1634C110.325 10.1634 110.296 10.1634 110.268 10.1634H109.297H109.268C109.268 10.1634 109.268 10.1333 109.268 10.1032C109.268 10.043 109.268 9.89248 109.326 9.62157L109.754 5.91919C109.782 5.76869 109.782 5.64828 109.811 5.55798C109.84 5.67838 109.84 5.79879 109.868 5.91919L110.296 9.62157C110.325 9.89248 110.325 10.0129 110.325 10.1032Z" fill="#5083F3"/>
<path d="M119.571 7.69513C119.342 7.39412 119.057 7.15332 118.743 7.00281C118.428 6.85231 118.114 6.76201 117.8 6.76201H117.086C117.058 6.76201 117.058 6.76201 117.058 6.76201C117.058 6.76201 117.029 6.70181 117.029 6.6416V2.21681C117.029 2.12651 117.029 2.09641 117.029 2.09641C117.029 2.09641 117.029 2.09641 117.058 2.09641H119.228C119.514 2.09641 119.856 1.9158 119.856 1.37399V0.771976C119.856 0.230164 119.542 0.0495605 119.228 0.0495605H115.916C115.63 0.0495605 115.288 0.230164 115.288 0.771976V14.9193C115.288 15.4611 115.602 15.6417 115.916 15.6417H117.772C118.086 15.6417 118.4 15.5514 118.714 15.4009C119.028 15.2203 119.285 14.9795 119.542 14.6785C119.77 14.3775 119.97 13.9862 120.113 13.5347C120.256 13.0831 120.313 12.5714 120.313 12.0296V10.3139C120.313 9.74197 120.227 9.23026 120.113 8.80885C119.999 8.35734 119.799 7.99613 119.571 7.69513ZM117.058 8.80885C117.058 8.80885 117.058 8.80885 117.086 8.80885H117.8C118.029 8.80885 118.2 8.89915 118.371 9.10986C118.543 9.32056 118.628 9.68177 118.628 10.1634V12.15C118.628 12.6316 118.543 12.9928 118.371 13.2035C118.2 13.4143 118.029 13.5046 117.8 13.5046H117.086C117.058 13.5046 117.058 13.5046 117.058 13.5046C117.058 13.5046 117.029 13.4444 117.029 13.3842V8.92925C117.058 8.83895 117.058 8.80885 117.058 8.80885Z" fill="#5083F3"/>
<path d="M125.962 0.0495605H125.02C124.078 0.0495605 122.964 0.531171 122.964 2.78872V12.9025C122.964 15.1601 124.078 15.6417 125.02 15.6417H125.962C126.905 15.6417 128.018 15.1601 128.018 12.9025V2.81882C128.018 0.531171 126.905 0.0495605 125.962 0.0495605ZM126.334 2.66832V13.0229C126.334 13.625 126.105 13.625 125.991 13.625H125.02C124.877 13.625 124.678 13.625 124.678 13.0229V2.66832C124.678 2.0663 124.906 2.0663 125.02 2.0663H125.962C126.105 2.09641 126.334 2.09641 126.334 2.66832Z" fill="#5083F3"/>
<path d="M135.377 0.0495605H131.294C131.009 0.0495605 130.666 0.230164 130.666 0.771976V1.34389C130.666 1.8857 130.98 2.0663 131.294 2.0663H132.408C132.436 2.0663 132.436 2.0663 132.436 2.0663C132.436 2.0663 132.465 2.12651 132.465 2.18671V14.9193C132.465 15.4611 132.779 15.6417 133.093 15.6417H133.55C133.836 15.6417 134.178 15.4611 134.178 14.9193V2.21681C134.178 2.12651 134.178 2.09641 134.178 2.09641C134.178 2.09641 134.178 2.09641 134.207 2.09641H135.377C135.663 2.09641 136.006 1.9158 136.006 1.37399V0.771976C135.977 0.260265 135.663 0.0495605 135.377 0.0495605Z" fill="#5083F3"/>
<path d="M144.139 14.4678L142.482 0.681674C142.425 0.290366 142.197 0.0495605 141.854 0.0495605H140.969C140.626 0.0495605 140.398 0.290366 140.341 0.681674L138.685 14.4678C138.656 14.6785 138.656 14.7989 138.656 14.829C138.656 14.8892 138.656 14.9193 138.656 14.9494C138.656 15.3708 138.885 15.6417 139.284 15.6417H139.684C140.027 15.6417 140.255 15.4009 140.312 15.0096L140.626 12.2403C140.626 12.15 140.655 12.15 140.684 12.15H142.225C142.225 12.15 142.254 12.1801 142.254 12.2403L142.597 15.0096C142.654 15.4009 142.882 15.6417 143.225 15.6417H143.625C143.996 15.6417 144.253 15.3708 144.253 14.9494C144.253 14.9193 144.253 14.8892 144.253 14.829C144.167 14.7989 144.167 14.6785 144.139 14.4678ZM141.94 10.1032C141.94 10.1333 141.94 10.1634 141.94 10.1634C141.94 10.1634 141.911 10.1634 141.883 10.1634H140.912H140.883C140.883 10.1634 140.883 10.1333 140.883 10.1032C140.883 10.0129 140.912 9.83227 140.941 9.62157L141.369 5.91919C141.397 5.76869 141.397 5.64828 141.426 5.55798C141.455 5.67838 141.455 5.79879 141.483 5.91919L141.911 9.62157C141.94 9.83227 141.94 9.98278 141.94 10.1032Z" fill="#5083F3"/>
<path d="M151.471 0.0495605H147.531C147.245 0.0495605 146.903 0.230164 146.903 0.771976V14.9193C146.903 15.4611 147.217 15.6417 147.531 15.6417H151.471C151.757 15.6417 152.099 15.4611 152.099 14.9193V14.3775C152.099 13.8357 151.785 13.6551 151.471 13.6551H148.644C148.616 13.6551 148.616 13.6551 148.616 13.6551C148.616 13.6551 148.587 13.5949 148.587 13.5347V8.92925C148.587 8.83895 148.587 8.80885 148.587 8.80885C148.587 8.80885 148.587 8.80885 148.616 8.80885H150.557C150.843 8.80885 151.186 8.62825 151.186 8.08644V7.51452C151.186 6.97271 150.872 6.79211 150.557 6.79211H148.616C148.587 6.79211 148.587 6.79211 148.587 6.79211C148.587 6.79211 148.559 6.73191 148.559 6.6717V2.21681C148.559 2.12651 148.559 2.09641 148.559 2.09641C148.559 2.09641 148.559 2.09641 148.587 2.09641H151.414C151.7 2.09641 152.042 1.9158 152.042 1.37399V0.771976C152.071 0.260265 151.757 0.0495605 151.471 0.0495605Z" fill="#5083F3"/>
<path d="M159.459 0.0495605H155.376C155.091 0.0495605 154.748 0.230164 154.748 0.771976V1.34389C154.748 1.8857 155.062 2.0663 155.376 2.0663H156.49C156.518 2.0663 156.518 2.0663 156.518 2.0663C156.518 2.0663 156.547 2.12651 156.547 2.18671V14.9193C156.547 15.4611 156.861 15.6417 157.175 15.6417H157.632C157.918 15.6417 158.26 15.4611 158.26 14.9193V2.21681C158.26 2.12651 158.26 2.09641 158.26 2.09641C158.26 2.09641 158.26 2.09641 158.289 2.09641H159.459C159.745 2.09641 160.088 1.9158 160.088 1.37399V0.771976C160.059 0.260265 159.745 0.0495605 159.459 0.0495605Z" fill="#5083F3"/>
<path d="M71.3281 2.6458C72.4987 3.81973 73.698 5.05386 74.8972 6.25788C74.8972 6.28798 74.8686 6.34818 74.8686 6.37829C71.9848 6.37829 69.0724 6.37829 66.16 6.37829C66.16 7.46191 66.16 8.48533 66.16 9.56896C69.0724 9.56896 71.9848 9.56896 74.8686 9.56896C74.8972 9.62916 74.9257 9.68936 74.9257 9.71946C73.7265 10.9536 72.5273 12.1576 71.3852 13.3315C72.1276 14.1443 72.8128 14.8667 73.441 15.5289C75.8394 13.0004 78.2665 10.4419 80.6649 7.94352C78.2665 5.41506 75.8394 2.85651 73.4981 0.358154C72.7843 1.08057 72.099 1.80299 71.3281 2.6458Z" fill="#5083F3"/>
<path d="M48.458 15.6485C53.3406 15.6485 58.2232 15.6485 63.0772 15.6485C63.0772 10.5013 63.0772 5.4143 63.0772 0.26709C58.1946 0.26709 53.3406 0.26709 48.458 0.26709C48.458 5.4143 48.458 10.5314 48.458 15.6485Z" fill="#5083F3"/>
<path d="M95.0274 2.7654L91.03 5.20356V0.387451H88.0319V5.20356L84.0631 2.7654L82.5498 5.47446L86.5472 7.91261L82.5498 10.3508L84.0631 13.0598L88.0319 10.6217V15.5582H91.03V10.6217L95.0274 13.0598L96.5122 10.3508L92.5148 7.91261L96.5122 5.47446L95.0274 2.7654Z" fill="#5083F3"/>
</svg>
